<?xml version="1.0" encoding="utf-8"?>
<!-- Generator: Adobe Illustrator 26.0.0, SVG Export Plug-In . SVG Version: 6.00 Build 0)  -->
<svg version="1.1" id="Layer_1" xmlns="http://www.w3.org/2000/svg" xmlns:xlink="http://www.w3.org/1999/xlink" x="0px" y="0px"
	 viewBox="0 0 64 64" style="enable-background:new 0 0 64 64;" xml:space="preserve">
<style type="text/css">
	.st0{display:none;fill:#E5F4E3;}
	.st1{fill:#E5F4E3;}
	.st2{display:none;fill:#006D75;}
	.st3{display:none;}
	.st4{display:inline;fill:#006D75;}
	.st5{display:inline;}
	.st6{fill:#008694;}
	.st7{fill:#006D75;}
	.st8{fill:none;stroke:#006D75;stroke-width:1.7852;stroke-miterlimit:10;}
	.st9{display:inline;fill:none;stroke:#006D75;stroke-width:2.3214;stroke-miterlimit:10;}
	.st10{fill:none;stroke:#006D75;stroke-width:1.6917;stroke-miterlimit:10;}
	.st11{display:inline;fill:#006D75;stroke:#016D75;stroke-width:0.7013;stroke-miterlimit:10;}
	.st12{fill:none;stroke:#008694;stroke-width:2.2069;stroke-miterlimit:10;}
	.st13{display:inline;fill:#006D75;stroke:#016D75;stroke-width:0.6096;stroke-miterlimit:10;}
	.st14{fill:none;stroke:#006D75;stroke-width:1.8209;stroke-miterlimit:10;}
	.st15{display:inline;fill:none;}
</style>
<path class="st0" d="M5,38.8C-1.4,27.7,0.3,19,10.1,12.5S30.9,2.7,43,2.6c12.1-0.2,18.7,5.7,19.7,17.7s-1.2,22.4-6.6,31.1
	S42.4,63.1,31.3,60S11.4,49.9,5,38.8z"/>
<path class="st1" d="M53.2,54.2c-6.5,9.3-15.5,12-26.9,8S7.2,50.5,3.3,38.9s-0.8-21.6,9-30S32.4-1.2,43.2,3.2S60,15,61.2,25.1
	S59.7,44.9,53.2,54.2z"/>
<path class="st0" d="M4.5,27.6c5-10.8,11.9-18.8,20.6-24s17.6-4,26.4,3.6s12.1,17.1,9.6,28.4S52.4,55,42.4,59.8s-20.1,3.4-30.3-4.4
	S-0.5,38.4,4.5,27.6z"/>
<path class="st2" d="M36.1,16H20.3c-0.7,0-1.3,0.6-1.3,1.3v2.6c0,0.7,0.6,1.3,1.3,1.3v10.5c0,0.7,0.6,1.3,1.3,1.3h13.1
	c0.7,0,1.3-0.6,1.3-1.3V21.2c0.7,0,1.3-0.6,1.3-1.3v-2.6C37.4,16.5,36.8,16,36.1,16z M34.8,31.7H21.6V21.2h13.1L34.8,31.7L34.8,31.7
	z M36.1,19.9H20.3v-2.6h15.8V19.9z"/>
<path class="st2" d="M45.7,32H29.9c-0.7,0-1.3,0.6-1.3,1.3v2.6c0,0.7,0.6,1.3,1.3,1.3v10.5c0,0.7,0.6,1.3,1.3,1.3h13.1
	c0.7,0,1.3-0.6,1.3-1.3V37.2c0.7,0,1.3-0.6,1.3-1.3v-2.6C47,32.5,46.4,32,45.7,32z M44.4,47.7H31.2V37.2h13.1L44.4,47.7L44.4,47.7z
	 M45.7,35.9H29.9v-2.6h15.8V35.9z"/>
<g class="st3">
	<path class="st4" d="M115,74.5v1H91v-4h21.4v-2H91c-1.1,0-2,0.9-2,2v4c0,1.1,0.9,2,2,2v16c0,1.1,0.9,2,2,2h20c1.1,0,2-0.9,2-2v-16
		c1.1,0,2-0.9,2-2v-1H115z M113,93.5H93v-16h20V93.5z"/>
	<circle class="st4" cx="117" cy="69.5" r="4"/>
</g>
<polygon class="st2" points="43.1,22.4 44.4,24.8 47,25.2 45.1,26.9 45.7,29.5 43.1,28.1 40.5,29.5 41.2,26.9 39.2,25.2 41.9,24.8 
	"/>
<path class="st2" d="M45,33.4v-3.7h-3.9c-0.2-1.2-0.7-2.3-1.4-3.3l2.8-2.8L39.9,21l-2.8,2.8c-1-0.7-2.1-1.1-3.3-1.4v-3.9h-3.7v3.9
	c-1.2,0.2-2.3,0.7-3.3,1.4L24.1,21l-2.6,2.6l2.8,2.8c-0.7,1-1.1,2.1-1.4,3.3H19v3.7h3.9c0.2,1.2,0.7,2.3,1.4,3.3l-2.8,2.8l2.6,2.6
	l2.8-2.8c1,0.7,2.1,1.1,3.3,1.4v3.9h3.7v-3.9c1.2-0.2,2.3-0.7,3.3-1.4l2.8,2.8l2.6-2.6l-2.8-2.8c0.7-1,1.1-2.1,1.4-3.3
	C41.2,33.4,45,33.4,45,33.4z M32,37.1c-3.1,0-5.6-2.5-5.6-5.6s2.5-5.6,5.6-5.6s5.6,2.5,5.6,5.6S35.1,37.1,32,37.1z"/>
<g class="st3">
	<path class="st4" d="M46.4,19.5H17.6c-1.3,0-2.4,1.1-2.4,2.4v19.2c0,1.3,1.1,2.4,2.4,2.4h28.8c1.3,0,2.4-1.1,2.4-2.4V21.9
		C48.8,20.6,47.7,19.5,46.4,19.5z M46.4,21.9v3.6H17.6v-3.6H46.4z M17.6,41.1V27.9h28.8v13.2H17.6z"/>
	<rect x="20" y="36.3" class="st4" width="12" height="2.4"/>
</g>
<g id="Layer_26" class="st3">
	<g class="st5">
		<path class="st6" d="M48.1,17.3v5.8H18.8v-5.8H48.1 M48.1,14.4H18.8c-1.6,0-2.9,1.3-2.9,2.9v5.8c0,1.6,1.3,2.9,2.9,2.9H48
			c1.6,0,2.9-1.3,2.9-2.9v-5.8C51,15.7,49.7,14.4,48.1,14.4z"/>
		<path class="st6" d="M24.7,32v14.6h-5.8V32H24.7 M24.7,29h-5.8c-1.6,0-2.9,1.3-2.9,2.9v14.6c0,1.6,1.3,2.9,2.9,2.9h5.8
			c1.6,0,2.9-1.3,2.9-2.9V32C27.6,30.3,26.3,29,24.7,29z"/>
		<path class="st6" d="M48.1,32v14.6H33.5V32H48.1 M48.1,29H33.5c-1.6,0-2.9,1.3-2.9,2.9v14.6c0,1.6,1.3,2.9,2.9,2.9h14.6
			c1.6,0,2.9-1.3,2.9-2.9V32C51,30.3,49.7,29,48.1,29z"/>
	</g>
	<g class="st5">
		<rect x="18" y="37.4" class="st7" width="30" height="2.1"/>
		<rect x="18" y="41.7" class="st7" width="30" height="2.1"/>
		<path class="st7" d="M41.6,24.5c-1.2,0-2.1,1-2.1,2.1c0,1.2,1,2.1,2.1,2.1c1.2,0,2.1-1,2.1-2.1C43.7,25.5,42.8,24.5,41.6,24.5z"/>
		<path class="st7" d="M33,31c-2.4,0-4.3-1.9-4.3-4.3s1.9-4.3,4.3-4.3s4.3,1.9,4.3,4.3C37.3,29,35.4,31,33,31z M33,24.5
			c-1.2,0-2.1,1-2.1,2.1c0,1.2,1,2.1,2.1,2.1c1.1,0,2.1-1,2.1-2.1S34.2,24.5,33,24.5z"/>
		<path class="st7" d="M24.4,24.5c-1.2,0-2.1,1-2.1,2.1c0,1.2,1,2.1,2.1,2.1s2.1-1,2.1-2.1C26.6,25.5,25.6,24.5,24.4,24.5z"/>
		<path class="st7" d="M45.9,35.2H20.1c-1.2,0-2.1-1-2.1-2.1V20.2c0-1.2,1-2.1,2.1-2.1h25.7c1.2,0,2.1,1,2.1,2.1v12.9
			C48,34.3,47,35.2,45.9,35.2z M45.9,20.2H20.1v12.9h25.7L45.9,20.2L45.9,20.2z"/>
	</g>
</g>
<g id="Layer_7" class="st3">
</g>
<g id="Layer_1_00000070806383285196343690000008867601310849395126_" class="st3">
	<g class="st5">
		<rect x="36.6" y="24.4" class="st7" width="8.3" height="2.4"/>
		<rect x="36.6" y="30.3" class="st7" width="8.3" height="2.4"/>
		<rect x="36.6" y="36.2" class="st7" width="8.3" height="2.4"/>
		<path class="st7" d="M47.2,18.5H18.8c-1.3,0-2.4,1.1-2.4,2.4v21.3c0,1.3,1.1,2.4,2.4,2.4h28.4c1.3,0,2.4-1.1,2.4-2.4V20.9
			C49.6,19.6,48.5,18.5,47.2,18.5z M18.8,20.9h13v21.3h-13V20.9z M34.2,42.1V20.9h13v21.3L34.2,42.1L34.2,42.1z"/>
	</g>
</g>
<g id="Layer_2_00000168087328202812824020000009476272679802144923_" class="st3">
	<g class="st5">
		<path class="st7" d="M40.3,22.8v-3.7H18v9.3h8.4v16.7H44V22.8H40.3z M19.9,26.5v-5.6h18.6v1.9H26.4v3.7H19.9z M42.1,43.2H28.2
			V24.7h13.9V43.2z"/>
		<rect x="30.1" y="27.4" class="st7" width="1.9" height="1.9"/>
		<rect x="33.8" y="27.4" class="st7" width="6.5" height="1.9"/>
		<rect x="30.1" y="33" class="st7" width="1.9" height="1.9"/>
		<rect x="33.8" y="33" class="st7" width="6.5" height="1.9"/>
		<rect x="30.1" y="38.6" class="st7" width="1.9" height="1.9"/>
		<rect x="33.8" y="38.6" class="st7" width="6.5" height="1.9"/>
	</g>
</g>
<g id="Layer_3" class="st3">
	<g class="st5">
		<path class="st7" d="M39,30.3c2.2,0,4-1.8,4-4s-1.8-4-4-4s-4,1.8-4,4S36.8,30.3,39,30.3z M39,24.9c0.7,0,1.3,0.6,1.3,1.3
			c0,0.7-0.6,1.3-1.3,1.3s-1.3-0.6-1.3-1.3C37.6,25.5,38.2,24.9,39,24.9z"/>
		<path class="st7" d="M49,14H19c-1.7,0-3,1.3-3,3v30c0,1.7,1.3,3,3,3h30c1.7,0,3-1.3,3-3V17C52,15.4,50.7,14,49,14z M49,47H19v-9
			l7.5-7.5l8.4,8.4c1.2,1.2,3.1,1.2,4.2,0l2.4-2.4L49,44V47z M49,39.8l-5.4-5.4c-1.2-1.2-3.1-1.2-4.2,0L37,36.8l-8.4-8.4
			c-1.2-1.2-3.1-1.2-4.2,0L19,33.8V17h30V39.8z"/>
	</g>
</g>
<g id="Layer_4" class="st3">
	<g class="st5">
		<path class="st7" d="M40.9,23.8c-5.2-4.8-13.3-4.4-18.1,0.9c-0.5,0.6-1,1.2-1.4,1.9L20.9,23L19,23.2l1.1,7.8l7.8-1.1L27.6,28
			l-5.1,0.7c2.5-5.4,9-7.7,14.4-5.2c0.9,0.4,1.8,1,2.6,1.7L40.9,23.8z"/>
		<path class="st7" d="M34.7,42c0.1,0,0.2,0,0.3-0.1c0.3-0.1,0.7-0.2,1-0.3c3-1.1,5.2-3.7,5.9-6.8l-4.2,1.5l-0.6-1.6l6.5-2.4
			l2.4,6.5l-1.6,0.6l-1.1-3c-1.2,3.5-4.2,6.2-7.8,7.1c-0.1,0-0.3,0.1-0.4,0.1c-0.3,0.1-0.5,0.1-0.8,0.1c-0.2,0-0.3,0-0.5,0
			s-0.4,0-0.7,0c-0.2,0-0.3,0-0.5,0s-0.4,0-0.6,0c-0.2,0-0.4,0-0.5-0.1c-0.2,0-0.4-0.1-0.6-0.1s-0.4-0.1-0.5-0.1
			c-0.2,0-0.4-0.1-0.6-0.2c-0.2,0-0.3-0.1-0.5-0.2c-0.2-0.1-0.4-0.1-0.6-0.2c-0.2-0.1-0.3-0.1-0.5-0.2c-0.2-0.1-0.4-0.2-0.6-0.3
			c-0.1-0.1-0.2-0.1-0.3-0.2l0,0c-2.3-1.3-4-3.4-4.9-5.8l1.6-0.6c0.8,2.2,2.4,4,4.5,5.1c0.2,0.1,0.4,0.2,0.5,0.3s0.3,0.1,0.4,0.2
			c0.2,0.1,0.3,0.1,0.5,0.2c0.1,0,0.3,0.1,0.4,0.1c0.2,0,0.3,0.1,0.5,0.1c0.1,0,0.3,0.1,0.4,0.1c0.2,0,0.3,0.1,0.5,0.1s0.3,0,0.5,0
			c0.2,0,0.4,0,0.5,0s0.3,0,0.4,0c0.2,0,0.4,0,0.6,0c0.1,0,0.3,0,0.4,0C34.3,42.1,34.5,42,34.7,42z"/>
	</g>
</g>
<g id="Layer_5" class="st3">
	<g class="st5">
		<polygon class="st8" points="23.1,25.5 24.5,24.2 23.6,20 26.8,18.7 29.5,21.9 31.4,21.9 33.4,18.4 37.6,20.3 36.7,23.9 38,25.3 
			41.7,24.4 43.5,28.5 40.3,30.4 40.3,32.2 44,34.5 41.7,38.6 38.5,37.7 37.1,39.1 38,42.8 33.9,44.6 31.6,41.4 29.8,41.4 
			27.5,44.6 23.3,42.8 24.3,39.1 22.9,37.7 19.2,38.6 17.4,34.5 21,32.2 21,30.8 17.4,28.5 19.2,24.4 		"/>
		<circle class="st8" cx="30.5" cy="31.5" r="4.6"/>
	</g>
	<rect x="-44" y="-14.5" class="st9" width="14" height="8"/>
</g>
<g id="Layer_6" class="st3">
	<g class="st5">
		<polygon class="st7" points="51,47.6 43.9,47.6 43.9,45.2 48.6,45.2 48.6,16.8 43.9,16.8 43.9,14.4 51,14.4 		"/>
		<path class="st7" d="M45,35.2c-0.4-1.7-1.5-3.2-3.1-3.8c-1.3-0.6-2.8-0.6-4.1,0c-0.3,0.1-0.5,0.3-0.8,0.4l-3.3-3.3
			c1.6-2.5,0.8-5.8-1.7-7.4c-2.5-1.6-5.8-0.8-7.4,1.7s-0.8,5.8,1.7,7.4c1.7,1.1,4,1.1,5.7,0l3.3,3.3c-0.7,1.2-1,2.6-0.7,3.9
			c0.4,1.7,1.5,3.2,3.1,3.8c1.3,0.6,2.8,0.6,4.1,0c1.6-0.7,2.8-2.1,3.1-3.8C45.1,36.7,45.1,36,45,35.2z M29.1,28.6c-1.6,0-3-1.3-3-3
			c0-1.6,1.3-3,3-3s3,1.3,3,3C32.1,27.3,30.7,28.6,29.1,28.6z"/>
		<polygon class="st7" points="25,47.6 17.9,47.6 17.9,14.4 25,14.4 25,16.8 20.2,16.8 20.2,45.2 25,45.2 		"/>
	</g>
</g>
<g id="Layer_8" class="st3">
	<g class="st5">
		<path class="st7" d="M39.6,29.6v10.8c0,1.1-0.9,2.1-2.1,2.1H23.2c-1.1,0-2.1-0.9-2.1-2.1V26c0-1.1,0.9-2.1,2.1-2.1h12.2v-2.1H23.2
			c-2.3,0-4.1,1.9-4.1,4.1v14.3c0,2.3,1.9,4.1,4.1,4.1h14.3c2.3,0,4.1-1.9,4.1-4.1V29.6H39.6z"/>
		<path class="st10" d="M29.6,34.6l1.4-3.8l12.3-12.2c0.2-0.2,0.4-0.2,0.6,0l1.7,1.7c0.2,0.2,0.2,0.4,0,0.6L34,32.6l-4.2,2.2
			C29.7,34.9,29.5,34.7,29.6,34.6z"/>
	</g>
</g>
<g id="Layer_9" class="st3">
	<g class="st5">
		<path class="st7" d="M41,41.3h-2.3V39c0-1.9-1.5-3.4-3.4-3.4h-4.6c-1.9,0-3.4,1.5-3.4,3.4v2.3H25V39c0-3.2,2.6-5.7,5.7-5.7h4.6
			c3.2,0,5.7,2.6,5.7,5.7V41.3z"/>
		<path class="st7" d="M33,21.8c1.9,0,3.4,1.5,3.4,3.4s-1.5,3.4-3.4,3.4c-1.9,0-3.4-1.5-3.4-3.4S31.1,21.8,33,21.8 M33,19.5
			c-3.2,0-5.7,2.6-5.7,5.7S29.8,31,33,31s5.7-2.6,5.7-5.7S36.2,19.5,33,19.5z"/>
		<rect x="16.9" y="44.2" class="st7" width="32.2" height="2.3"/>
	</g>
</g>
<g id="Layer_10" class="st3">
	<path class="st4" d="M38.1,18.7v2.7H47L35.4,33.1l-5.8-5.8c-0.5-0.5-1.4-0.5-1.9,0l0,0l-14,14l1.9,1.9l13-13l5.8,5.8
		c0.5,0.5,1.4,0.5,1.9,0l0,0l12.6-12.6v8.9h2.7V18.7H38.1z"/>
</g>
<g id="Layer_11" class="st3">
	<g class="st5">
		<rect x="37.3" y="37.1" class="st7" width="12.7" height="2.5"/>
		<rect x="37.3" y="42.2" class="st7" width="12.7" height="2.5"/>
		<rect x="37.3" y="47.2" class="st7" width="12.7" height="2.5"/>
		<path class="st7" d="M32.2,37.1c-2.7,0.1-5-2.1-5.1-4.9c0-0.1,0-0.2,0-0.2c-0.1-2.7,2.1-5,4.9-5.1c0.1,0,0.2,0,0.2,0
			c2.7-0.1,5,2.1,5.1,4.9c0,0.1,0,0.2,0,0.2h2.5c0-4.2-3.4-7.6-7.6-7.6s-7.6,3.4-7.6,7.6s3.4,7.6,7.6,7.6V37.1z"/>
		<path class="st7" d="M49.1,25.7l-3-5.2c-0.6-1-1.9-1.5-3-1.1l-3.1,1c-0.5-0.4-1.1-0.7-1.7-1l-0.6-3.2c-0.2-1.2-1.3-2-2.5-2h-6
			c-1.2,0-2.3,0.9-2.5,2l-0.6,3.2c-0.6,0.3-1.1,0.6-1.7,1l-3.1-1c-1.1-0.4-2.4,0.1-3,1.1l-3,5.2c-0.6,1-0.4,2.4,0.5,3.2l2.5,2.2
			c0,0.3,0,0.6,0,1c0,0.3,0,0.7,0,1l-2.4,2.1c-0.9,0.8-1.1,2.1-0.5,3.2l3,5.2c0.6,1,1.9,1.5,3,1.1l3.1-1c0.5,0.4,1.1,0.7,1.7,1
			l0.6,3.2c0.2,1.2,1.3,2,2.5,2h3v-2.5h-3l-0.9-4.5c-1.2-0.5-2.4-1.1-3.4-2l-4.4,1.5l-3-5.2l3.5-3c-0.2-1.3-0.2-2.7,0-4l-3.5-3
			l3-5.2l4.3,1.5c1-0.9,2.2-1.5,3.4-2l0.9-4.5h6l0.9,4.5c1.2,0.5,2.4,1.1,3.4,2l4.4-1.5l3,5.2l-3.6,3.1L45,32l3.6-3.1
			C49.5,28.1,49.7,26.8,49.1,25.7z"/>
	</g>
</g>
<g id="Layer_12" class="st3">
	<g class="st5">
		<g>
			<path class="st7" d="M35.6,44.5h-2.4v-2.4c0-2-1.6-3.6-3.6-3.6h-4.8c-2,0-3.6,1.6-3.6,3.6v2.4h-2.4v-2.4c0-3.3,2.7-6,6.1-6.1h4.8
				c3.3,0,6,2.7,6.1,6.1v2.4H35.6z"/>
			<path class="st7" d="M27.1,23.9c2,0,3.6,1.6,3.6,3.6s-1.6,3.6-3.6,3.6s-3.6-1.6-3.6-3.6S25.1,23.9,27.1,23.9 M27.1,21.5
				c-3.3,0-6.1,2.7-6.1,6.1s2.7,6.1,6.1,6.1s6.1-2.7,6.1-6.1S30.4,21.5,27.1,21.5z"/>
		</g>
		<path class="st7" d="M49,25.8V24h-1.9c-0.1-0.6-0.3-1.1-0.7-1.6l1.3-1.3l-1.3-1.3l-1.3,1.3c-0.5-0.3-1-0.5-1.6-0.7v-1.9h-1.8v1.9
			c-0.6,0.1-1.1,0.3-1.6,0.7l-1.3-1.3l-1.3,1.3l1.3,1.3c-0.3,0.5-0.5,1-0.7,1.6h-1.9v1.8h1.9c0.1,0.6,0.3,1.1,0.7,1.6l-1.3,1.3
			l1.3,1.3l1.3-1.3c0.5,0.3,1,0.5,1.6,0.7v1.9h1.8v-1.9c0.6-0.1,1.1-0.3,1.6-0.7l1.3,1.3l1.3-1.3l-1.3-1.3c0.3-0.5,0.5-1,0.7-1.6H49
			z M42.7,27.6c-1.5,0-2.7-1.2-2.7-2.7s1.2-2.7,2.7-2.7s2.7,1.2,2.7,2.7S44.2,27.6,42.7,27.6z"/>
	</g>
</g>
<g id="Layer_13" class="st3">
	<path class="st11" d="M47.9,24.1l-3.2-5.8c-0.1-0.2-0.3-0.3-0.5-0.3h-7.4c-0.2,0-0.4,0.1-0.5,0.3l-3.2,5.8c-0.1,0.2-0.1,0.4,0,0.5
		l3.2,5.8c0.1,0.2,0.3,0.3,0.5,0.3h7.4c0.2,0,0.4-0.1,0.5-0.3l3.2-5.8C48,24.5,48,24.3,47.9,24.1z M44.3,19.6l2.3,4.2h-5L44.3,19.6z
		 M40.6,23.4l-2.7-4.3h5.5L40.6,23.4z M36.9,19.6l2.7,4.2h-5L36.9,19.6z M34.6,24.9h5l-2.7,4.2L34.6,24.9z M40.6,25.4l2.7,4.3h-5.5
		L40.6,25.4z M44.3,29.1l-2.7-4.2h5L44.3,29.1z"/>
	<path class="st4" d="M39,44.5h-0.2C19.2,43.3,16.4,26.8,16,21.7c-0.1-1.6,1.1-3.1,2.7-3.2l0,0h5.5c0.8,0,1.6,0.5,1.9,1.3l1.5,3.7
		c0.3,0.7,0.1,1.6-0.4,2.2l-2.1,2.1c0.7,3.9,3.7,6.9,7.6,7.6l2.2-2.1c0.6-0.6,1.4-0.7,2.2-0.4l3.8,1.5c0.7,0.3,1.2,1,1.2,1.9v5.3
		C42,43.1,40.7,44.5,39,44.5z M19,20.5c-0.6,0-1,0.4-1,1v0.1c0.5,5.9,3.4,19.9,20.9,20.9c0.6,0,1-0.4,1.1-0.9l0,0v-5.3l-3.8-1.5
		l-2.9,2.8l-0.5-0.1c-8.7-1.1-9.9-9.8-9.9-9.9l0.1-0.5l2.8-2.9l-1.5-3.8L19,20.5L19,20.5z"/>
	<path class="st11" d="M42.1,32l-0.9-0.5l2.1-3.6h3.1c0.6,0,1-0.5,1-1v-6.2c0-0.6-0.5-1-1-1H36.1c-0.6,0-1,0.5-1,1v6.2
		c0,0.6,0.5,1,1,1h4.6v1h-4.6C34.9,29,34,28,34,26.9v-6.2c0-1.1,0.9-2.1,2.1-2.1h10.3c1.1,0,2.1,0.9,2.1,2.1v6.2
		c0,1.1-0.9,2.1-2.1,2.1h-2.5L42.1,32z"/>
</g>
<g id="Layer_14" class="st3">
	<g class="st5">
		<rect x="27.9" y="31" class="st7" width="16.2" height="2.8"/>
		<path class="st12" d="M26.9,16.3h8.3c0.3,0,0.6,0,0.9,0s0.6,0.1,0.9,0.1c0.3,0.1,0.6,0.1,0.9,0.2c0.3,0.1,0.6,0.2,0.8,0.3
			c0.3,0.1,0.5,0.2,0.8,0.4c0.3,0.1,0.5,0.3,0.8,0.5s0.5,0.3,0.7,0.5s0.4,0.4,0.7,0.6c0.2,0.2,0.4,0.4,0.6,0.7
			c0.2,0.2,0.4,0.5,0.5,0.7c0.2,0.2,0.3,0.5,0.5,0.8s0.3,0.5,0.4,0.8c0.1,0.3,0.2,0.5,0.3,0.8s0.2,0.6,0.2,0.9
			c0.1,0.3,0.1,0.6,0.1,0.9s0,0.6,0,0.9v8.3c0,0.1,0,0.2,0,0.2L44,34c-0.1,0.1-0.1,0.1-0.2,0.1s-0.2,0-0.2,0H26.9
			c-0.3,0-0.6,0-0.9,0S25.4,34,25.1,34c-0.3-0.1-0.6-0.1-0.9-0.2c-0.3-0.1-0.6-0.2-0.8-0.3c-0.3-0.1-0.5-0.2-0.8-0.4
			s-0.5-0.3-0.8-0.5c-0.2-0.2-0.5-0.3-0.7-0.5s-0.4-0.4-0.7-0.6c-0.2-0.2-0.4-0.4-0.6-0.7s-0.4-0.5-0.5-0.7s-0.3-0.5-0.5-0.8
			c-0.1-0.3-0.3-0.5-0.4-0.8s-0.2-0.5-0.3-0.8c-0.1-0.3-0.2-0.6-0.2-0.9c-0.1-0.3-0.1-0.6-0.1-0.9s0-0.6,0-0.9l0,0
			c0-0.3,0-0.6,0-0.9s0.1-0.6,0.1-0.9c0.1-0.3,0.1-0.6,0.2-0.9s0.2-0.6,0.3-0.8c0.1-0.3,0.2-0.5,0.4-0.8s0.3-0.5,0.5-0.8
			s0.3-0.5,0.5-0.7s0.4-0.4,0.6-0.7c0.2-0.2,0.4-0.4,0.7-0.6c0.2-0.2,0.5-0.4,0.7-0.5s0.5-0.3,0.8-0.5c0.3-0.1,0.5-0.3,0.8-0.4
			s0.5-0.2,0.8-0.3c0.3-0.1,0.6-0.2,0.9-0.2c0.3-0.1,0.6-0.1,0.9-0.1S26.7,16.3,26.9,16.3z"/>
		<path class="st12" d="M41.1,30.3H33c-0.3,0-0.6,0-0.9,0c-0.3,0-0.6,0.1-0.9,0.1c-0.3,0.1-0.6,0.1-0.9,0.2s-0.6,0.2-0.8,0.3
			c-0.3,0.1-0.5,0.2-0.8,0.4c-0.3,0.1-0.5,0.3-0.8,0.5c-0.2,0.2-0.5,0.3-0.7,0.5s-0.4,0.4-0.7,0.6c-0.2,0.2-0.4,0.4-0.6,0.7
			c-0.2,0.2-0.4,0.5-0.5,0.7s-0.3,0.5-0.5,0.8s-0.3,0.5-0.4,0.8s-0.2,0.5-0.3,0.8C24.1,37,24,37.3,24,37.6s-0.1,0.6-0.1,0.9
			c0,0.3,0,0.6,0,0.9v8.3c0,0.1,0,0.2,0,0.2c0,0.1,0.1,0.1,0.1,0.2c0.1,0.1,0.1,0.1,0.2,0.1s0.2,0,0.2,0h16.4c0.3,0,0.6,0,0.9,0
			s0.6-0.1,0.9-0.1c0.3-0.1,0.6-0.1,0.9-0.2s0.6-0.2,0.8-0.3s0.5-0.2,0.8-0.4s0.5-0.3,0.8-0.5c0.2-0.2,0.5-0.3,0.7-0.5
			s0.4-0.4,0.7-0.6c0.2-0.2,0.4-0.4,0.6-0.7c0.2-0.2,0.4-0.5,0.5-0.7s0.3-0.5,0.5-0.8c0.1-0.3,0.3-0.5,0.4-0.8
			c0.1-0.3,0.2-0.5,0.3-0.8s0.2-0.6,0.2-0.9s0.1-0.6,0.1-0.9s0-0.6,0-0.9l0,0c0-0.3,0-0.6,0-0.9c0-0.3-0.1-0.6-0.1-0.9
			s-0.1-0.6-0.2-0.9c-0.1-0.3-0.2-0.6-0.3-0.8c-0.1-0.3-0.2-0.5-0.4-0.8s-0.3-0.5-0.5-0.8c-0.2-0.2-0.3-0.5-0.5-0.7
			s-0.4-0.4-0.6-0.7c-0.2-0.2-0.4-0.4-0.7-0.6c-0.2-0.2-0.5-0.4-0.7-0.5c-0.2-0.2-0.5-0.3-0.8-0.5c-0.3-0.1-0.5-0.3-0.8-0.4
			s-0.5-0.2-0.8-0.3s-0.6-0.2-0.9-0.2C42.3,30,42,30,41.7,30C41.6,30.3,41.3,30.3,41.1,30.3L41.1,30.3z"/>
	</g>
</g>
<g id="Layer_15" class="st3">
	<g class="st5">
		<path class="st7" d="M36.3,38.9v1.9h-5.5v-1.9H36.3z"/>
		<path class="st7" d="M41.8,44.5H25.2c-1,0-1.8-0.8-1.8-1.9V20.4c0-1,0.8-1.9,1.8-1.9h16.6c1,0,1.8,0.8,1.8,1.9v22.3
			C43.6,43.7,42.8,44.5,41.8,44.5z M25.2,20.4v22.3h16.6V20.4H25.2z"/>
	</g>
</g>
<g id="Layer_16" class="st3">
	<g class="st5">
		<path class="st7" d="M41.2,19.1H24.6c-1,0-1.8,0.8-1.8,1.8v3.7H21v1.8h1.8V31H21v1.8h1.8v4.6H21v1.8h1.8v3.7c0,1,0.8,1.8,1.8,1.8
			h16.6c1,0,1.8-0.8,1.8-1.8v-22C43,19.9,42.2,19.1,41.2,19.1z M41.2,43.1H24.6v-3.7h1.8v-1.8h-1.8V33h1.8v-1.8h-1.8v-4.6h1.8v-1.8
			h-1.8v-3.7h16.6V43.1z"/>
		<rect x="30.1" y="24.6" class="st7" width="7.4" height="1.8"/>
		<rect x="30.1" y="31.1" class="st7" width="7.4" height="1.8"/>
		<rect x="30.1" y="37.5" class="st7" width="7.4" height="1.8"/>
	</g>
</g>
<g id="Layer_17" class="st3">
	<polygon class="st4" points="33.8,24.1 36.2,28.6 41.2,29.4 37.5,32.7 38.7,37.6 33.8,34.8 28.9,37.6 30.1,32.7 26.5,29.4 
		31.6,28.6 	"/>
	<path class="st4" d="M36,51.1l-2.1-1.2l4.9-8.6h7.4c1.4,0,2.5-1.1,2.5-2.4l0,0V24.1c0-1.4-1.1-2.5-2.4-2.5l0,0H21.6
		c-1.4,0-2.5,1.1-2.5,2.4l0,0v14.7c0,1.4,1.1,2.5,2.4,2.5l0,0h11v2.5h-11c-2.7,0-4.9-2.2-4.9-4.9l0,0V24.1c0-2.7,2.2-4.9,4.9-4.9
		l0,0H46c2.7,0,4.9,2.2,4.9,4.9l0,0v14.7c0,2.7-2.2,4.9-4.9,4.9l0,0h-5.9L36,51.1z"/>
</g>
<g id="Layer_38" class="st3">
	<g class="st5">
		<path class="st7" d="M33.6,45.5l-1.8-1l4.1-7.1H42c1.1,0,2-0.9,2-2l0,0V23.1c0-1.1-0.9-2-2-2l0,0H21.6c-1.1,0-2,0.9-2,2l0,0v12.2
			c0,1.1,0.9,2,2,2l0,0h9.2v2h-9.2c-2.2,0-4.1-1.8-4.1-4.1l0,0V23.1c0-2.2,1.8-4.1,4.1-4.1l0,0H42c2.2,0,4.1,1.8,4.1,4.1l0,0v12.2
			c0,2.2-1.8,4.1-4.1,4.1l0,0h-4.9L33.6,45.5z"/>
		<g>
			<path class="st7" d="M32.2,32.6c-1.4,0-2.7-0.8-3.5-2l-1.2,0.7c1.5,2.6,4.9,3.4,7.4,1.8c0.8-0.5,1.4-1.1,1.8-1.8l-1.2-0.7
				C35,31.8,33.6,32.5,32.2,32.6z"/>
			<path class="st7" d="M29.2,25.1c-0.9,0-1.7,0.8-1.7,1.7c0,0.9,0.8,1.7,1.7,1.7c0.9,0,1.7-0.8,1.7-1.7
				C30.9,25.9,30.1,25.1,29.2,25.1L29.2,25.1z"/>
			<path class="st7" d="M35.3,25.1c-0.9,0-1.7,0.8-1.7,1.7c0,0.9,0.8,1.7,1.7,1.7s1.7-0.8,1.7-1.7S36.2,25.1,35.3,25.1L35.3,25.1z"
				/>
		</g>
	</g>
</g>
<g id="Layer_18" class="st3">
	<g class="st5">
		<rect x="17.8" y="18" class="st7" width="24.1" height="2.7"/>
		<rect x="17.8" y="26" class="st7" width="24.1" height="2.7"/>
		<rect x="17.8" y="34" class="st7" width="24.1" height="2.7"/>
		<rect x="17.8" y="42.1" class="st7" width="24.1" height="2.7"/>
		<rect x="47.3" y="18" class="st7" width="2.7" height="2.7"/>
		<rect x="47.3" y="26" class="st7" width="2.7" height="2.7"/>
		<rect x="47.3" y="34" class="st7" width="2.7" height="2.7"/>
		<rect x="47.3" y="42.1" class="st7" width="2.7" height="2.7"/>
	</g>
</g>
<g id="Layer_19" class="st3">
	<path class="st4" d="M37.3,25.9h4.8c0.9,0,1.6-0.7,1.6-1.6v-3.2c0-0.9-0.7-1.6-1.6-1.6h-4.8c-0.9,0-1.6,0.7-1.6,1.6v0.8h-8v-0.8
		c0-0.9-0.7-1.6-1.6-1.6h-4.8c-0.9,0-1.6,0.7-1.6,1.6v3.2c0,0.9,0.7,1.6,1.6,1.6h4.8c0.9,0,1.6-0.7,1.6-1.6v-0.8h3.2v16
		c0,0.9,0.7,1.6,1.6,1.6h3.2v0.8c0,0.9,0.7,1.6,1.6,1.6h4.8c0.9,0,1.6-0.7,1.6-1.6v-3.2c0-0.9-0.7-1.6-1.6-1.6h-4.8
		c-0.9,0-1.6,0.7-1.6,1.6v0.8h-3.2v-7.2h3.2v0.8c0,0.9,0.7,1.6,1.6,1.6h4.8c0.9,0,1.6-0.7,1.6-1.6v-3.2c0-0.9-0.7-1.6-1.6-1.6h-4.8
		c-0.9,0-1.6,0.7-1.6,1.6v0.8h-3.2v-7.2h3.2v0.8C35.7,25.2,36.4,25.9,37.3,25.9z M37.3,21.1h4.8v3.2h-4.8V21.1z M26.1,24.3h-4.8
		v-3.2h4.8C26.1,21.1,26.1,24.3,26.1,24.3z M37.3,38.7h4.8v3.2h-4.8V38.7z M37.3,29.9h4.8v3.2h-4.8V29.9z"/>
</g>
<g id="Layer_20" class="st3">
	<path class="st4" d="M45.1,24.1h-3.8v-3.8c0-1.1-0.9-1.9-1.9-1.9H22.2c-1.1,0-1.9,0.9-1.9,1.9v17.2c0,1.1,0.9,1.9,1.9,1.9H26v3.8
		c0,1.1,0.9,1.9,1.9,1.9h17.2c1.1,0,1.9-0.9,1.9-1.9V26C47,25,46.1,24.1,45.1,24.1z M39.4,37.5h-7.6v-4.8h7.6V37.5z M39.4,30.8h-7.6
		V26h7.6V30.8z M29.8,30.8h-7.6V26h7.6V30.8z M39.4,20.3v3.8H22.2v-3.8H39.4z M22.2,37.5v-4.8h7.6v4.8H22.2z M45.1,43.2H27.9v-3.8
		h11.4c1.1,0,1.9-0.9,1.9-1.9V26H45L45.1,43.2L45.1,43.2z"/>
</g>
<g id="Layer_21" class="st3">
	<g class="st5">
		<path class="st7" d="M31.1,35.2h-5.6c-1.5,0-2.8,1.2-2.8,2.8v1.9h1.9V38c0-0.5,0.4-0.9,0.9-0.9h5.6c0.5,0,0.9,0.4,0.9,0.9v1.9h1.9
			V38C33.9,36.5,32.7,35.2,31.1,35.2z"/>
		<path class="st7" d="M28.4,34.3c2.1,0,3.7-1.7,3.7-3.7s-1.7-3.7-3.7-3.7s-3.7,1.7-3.7,3.7S26.3,34.3,28.4,34.3z M28.4,28.7
			c1,0,1.9,0.8,1.9,1.9c0,1-0.8,1.9-1.9,1.9c-1,0-1.9-0.8-1.9-1.9S27.3,28.7,28.4,28.7z"/>
		<path class="st7" d="M43.2,34.3v8.4H20.9V24.1H32v-1.9H20.9c-1,0-1.9,0.8-1.9,1.9v18.6c0,1,0.8,1.9,1.9,1.9h22.3
			c1,0,1.9-0.8,1.9-1.9v-8.4C45.1,34.3,43.2,34.3,43.2,34.3z"/>
		<rect x="35.8" y="34.3" class="st7" width="5.6" height="1.9"/>
		<rect x="37.6" y="38" class="st7" width="3.7" height="1.9"/>
		<path class="st7" d="M46.9,25.9V24h-2c-0.1-0.6-0.4-1.1-0.7-1.6l1.4-1.4l-1.3-1.3L43,21.1c-0.5-0.3-1-0.6-1.6-0.7v-2h-1.9v2
			c-0.6,0.1-1.1,0.4-1.6,0.7l-1.4-1.4L35.2,21l1.4,1.4c-0.3,0.5-0.6,1-0.7,1.6h-2v1.9h2c0.1,0.6,0.4,1.1,0.7,1.6l-1.4,1.4l1.3,1.3
			l1.4-1.4c0.5,0.3,1,0.6,1.6,0.7v2h1.9v-2c0.6-0.1,1.1-0.4,1.6-0.7l1.4,1.4l1.3-1.3l-1.4-1.4c0.3-0.5,0.6-1,0.7-1.6H46.9z
			 M40.4,27.8c-1.5,0-2.8-1.2-2.8-2.8s1.2-2.8,2.8-2.8c1.5,0,2.8,1.2,2.8,2.8C43.2,26.5,42,27.8,40.4,27.8z"/>
	</g>
</g>
<g id="Layer_22" class="st3">
	<g class="st5">
		<rect x="36.1" y="40.3" class="st7" width="4" height="4"/>
		<rect x="43.1" y="40.3" class="st7" width="4" height="4"/>
		<rect x="36.1" y="33.4" class="st7" width="4" height="4"/>
		<rect x="43.1" y="33.4" class="st7" width="4" height="4"/>
		<path class="st7" d="M34.1,40.3H21.3V26.4H45v5h2v-5c0-1.1-0.9-2-2-2h-5.9v-4c0-1.1-0.9-2-2-2h-7.9c-1.1,0-2,0.9-2,2v4h-5.9
			c-1.1,0-2,0.9-2,2v13.9c0,1.1,0.9,2,2,2h12.9L34.1,40.3L34.1,40.3z M29.2,20.5h7.9v4h-7.9C29.2,24.5,29.2,20.5,29.2,20.5z"/>
	</g>
</g>
<g id="Layer_27" class="st3">
	<path class="st4" d="M104.3,28.7H89.6V12.8h27.2v5.7h2.3v-5.7c0-1.3-1-2.3-2.3-2.3H110V6c0-1.3-1-2.3-2.3-2.3h-9.1
		c-1.3,0-2.3,1-2.3,2.3v4.5h-6.8c-1.3,0-2.3,1-2.3,2.3v15.9c0,1.3,1,2.3,2.3,2.3h14.7v-2.3H104.3z M98.6,6h9.1v4.5h-9.1V6z"/>
	<path class="st13" d="M45.9,37.8l-2.7-5c-0.1-0.1-0.2-0.2-0.4-0.2h-6.4c-0.2,0-0.3,0.1-0.4,0.2l-2.7,5c-0.1,0.1-0.1,0.3,0,0.5
		l2.7,5c0.1,0.1,0.2,0.2,0.4,0.2h6.4c0.2,0,0.3-0.1,0.4-0.2l2.7-5C45.9,38.1,45.9,37.9,45.9,37.8z M42.7,33.9l2,3.7h-4.4L42.7,33.9z
		 M39.5,37.1l-2.4-3.7h4.7L39.5,37.1z M36.3,33.9l2.3,3.7h-4.4L36.3,33.9z M34.3,38.5h4.4l-2.3,3.7L34.3,38.5z M39.5,38.9l2.4,3.7
		h-4.7L39.5,38.9z M42.7,42.1l-2.3-3.7h4.4L42.7,42.1z"/>
	<path class="st4" d="M31.8,39.2h-9.4V25.8h16.8v4.7H41v-4.7c0.9,0,1.7-0.8,1.7-1.7v-3.4c0-0.9-0.8-1.7-1.7-1.7H20.8
		c-0.9,0-1.7,0.8-1.7,1.7v3.4c0,0.9,0.8,1.7,1.7,1.7v13.5c0,0.9,0.8,1.7,1.7,1.7h9.4v-1.8H31.8z M20.8,24.1v-3.4H41v3.4H20.8z"/>
</g>
<g id="Layer_39" class="st3">
</g>
<g id="Layer_28" class="st3">
	<path class="st4" d="M48.1,26.5L46,20.2c-0.1-0.4-0.6-0.7-1-0.7H22c-0.5,0-0.9,0.3-1,0.7l-2.1,6.2c0,0.1,0,0.2,0,0.3V33
		c0,0.6,0.5,1,1,1h1v10.4H23V34.1h6.2v10.4H46V34.1h1c0.6,0,1-0.5,1-1v-6.2C48.1,26.7,48.1,26.6,48.1,26.5z M43.9,42.4H31.4v-8.3
		h12.5V42.4z M46,32h-4.2v-4.2h-2.1V32h-5.2v-4.2h-2.1V32h-5.2v-4.2h-2.1V32H21v-5l1.8-5.4h21.4L46,27V32z"/>
</g>
<g id="Layer_29" class="st3">
</g>
<g id="Layer_30" class="st3">
	<path class="st4" d="M33.2,17.5c-7.4,0-13.4,6-13.4,13.4s6,13.4,13.4,13.4s13.4-6,13.4-13.4S40.6,17.5,33.2,17.5z M44.6,29.9h-5.7
		c-0.1-3.5-1-7-2.7-10.1C40.9,21.1,44.2,25.1,44.6,29.9z M33.2,42.4c-0.2,0-0.4,0-0.6,0c-2-3.2-3.1-6.8-3.2-10.5H37
		c-0.1,3.7-1.2,7.4-3.2,10.5C33.6,42.4,33.4,42.4,33.2,42.4z M29.3,29.9c0.1-3.7,1.2-7.4,3.2-10.5c0.4,0,0.9,0,1.3,0
		c2,3.2,3.1,6.8,3.2,10.5H29.3z M30,19.8c-1.6,3.1-2.5,6.6-2.6,10.1h-5.7C22.1,25.1,25.4,21.1,30,19.8L30,19.8z M21.7,31.9h5.7
		c0.1,3.5,1,7,2.6,10.1C25.5,40.7,22.1,36.7,21.7,31.9z M36.2,42c1.6-3.1,2.6-6.6,2.7-10.1h5.7C44.2,36.7,40.9,40.7,36.2,42z"/>
</g>
<g id="Layer_23" class="st3">
	<g class="st5">
		<g>
			<path class="st7" d="M49.4,23l2.6-2.6L50.7,19l-2.6,2.6l-1-1c-0.7-0.7-1.9-0.8-2.6-0.1c0,0,0,0-0.1,0.1L27.2,37.7v6.1h6.1
				l17.2-17.2c0.7-0.7,0.8-1.9,0.1-2.6c0,0,0,0-0.1-0.1L49.4,23z M32.6,41.9h-3.4v-3.4l16.6-16.6l3.4,3.4L32.6,41.9z"/>
			
				<rect x="31.2" y="24.3" transform="matrix(0.7071 -0.7071 0.7071 0.7071 -7.2166 33.0736)" class="st7" width="10.2" height="1.9"/>
		</g>
		<polyline class="st14" points="14.4,44 17.9,35.7 22.6,42.7 24.7,41.3 27.6,43.1 		"/>
	</g>
</g>
<g id="Layer_31" class="st3">
	<g class="st5">
		<path class="st7" d="M34.8,38.3h-5.9v-3.2h-2.1v3.2h-7.4V34c1.5-0.4,2.6-1.5,3-3c0.6-2.3-0.8-4.6-3-5.1v-4.4h7.4v3.2h2.1v-3.2
			h15.8v4.4c-1.5,0.4-2.6,1.5-3,3c-0.2,0.9-0.2,1.8,0.1,2.6h2.4c-0.4-0.4-0.6-0.9-0.6-1.5c0-1.2,0.9-2.1,2.1-2.1
			c0.6,0,1.1-0.5,1.1-1.1v-5.3c0-1.2-0.9-2.1-2.1-2.1H19.4c-1.2,0-2.1,0.9-2.1,2.1v5.3c0,0.6,0.5,1.1,1.1,1.1c1.2,0,2.1,0.9,2.1,2.1
			s-0.9,2.1-2.1,2.1c-0.6,0-1.1,0.5-1.1,1.1v5.3c0,1.2,0.9,2.1,2.1,2.1h15.4V38.3z"/>
		<rect x="26.8" y="26.7" class="st7" width="2.1" height="6.3"/>
	</g>
	<g class="st5">
		<rect x="36.6" y="33.5" class="st7" width="11" height="2.2"/>
		<rect x="36.6" y="37.9" class="st7" width="11" height="2.2"/>
		<rect x="36.6" y="42.3" class="st7" width="11" height="2.2"/>
	</g>
</g>
<g id="Layer_32" class="st3">
	<rect x="15.5" y="13.5" class="st15" width="37" height="37"/>
	<g class="st5">
		<rect x="40.2" y="36.3" class="st7" width="1.9" height="4.8"/>
		<rect x="36.4" y="31.5" class="st7" width="1.9" height="9.6"/>
		<path class="st7" d="M27.7,41.1c-2.7,0-4.8-2.2-4.8-4.8h1.9c0,1.6,1.3,2.9,2.9,2.9s2.9-1.3,2.9-2.9c0-1.6-1.3-2.9-2.9-2.9v-1.9
			c2.7,0,4.8,2.2,4.8,4.8C32.5,39,30.3,41.1,27.7,41.1z"/>
		<path class="st7" d="M44.1,18H20.9c-1.1,0-1.9,0.9-1.9,1.9V43c0,1.1,0.9,1.9,1.9,1.9H44c1.1,0,1.9-0.9,1.9-1.9V19.9
			C46,18.9,45.1,18,44.1,18z M44.1,26.7H30.6v-6.8h13.5V26.7z M28.6,19.9v6.8h-7.7v-6.8C20.9,19.9,28.6,19.9,28.6,19.9z M20.9,43.1
			V28.6H44v14.5H20.9z"/>
	</g>
</g>
<g id="Layer_33" class="st3">
	<g class="st5">
		<path class="st7" d="M40.5,32.5v-2.3h-1.7v2.6c0,0.2,0.1,0.5,0.3,0.6l2.4,2.4v1.4H22.2v-1.4l2.4-2.4c0.2-0.2,0.3-0.4,0.3-0.6v-3.5
			c0-3.8,3.1-7,6.9-7c1.2,0,2.4,0.3,3.5,0.9v-1.9c-0.8-0.4-1.7-0.6-2.6-0.7v-1.8H31v1.8c-4.5,0.5-7.8,4.2-7.8,8.7v3.1l-2.4,2.4
			c-0.2,0.2-0.3,0.4-0.3,0.6V38c0,0.5,0.4,0.9,0.9,0.9h6.1v0.9c0,2.4,2,4.4,4.4,4.4s4.4-2,4.4-4.4V39h6.1c0.5,0,0.9-0.4,0.9-0.9
			v-2.6c0-0.2-0.1-0.5-0.3-0.6L40.5,32.5z M34.4,39.9c0,1.4-1.2,2.6-2.6,2.6s-2.6-1.2-2.6-2.6V39h5.2V39.9z"/>
		<circle class="st7" cx="40.5" cy="25.1" r="3.5"/>
	</g>
</g>
<g id="Layer_34" class="st3">
	<path class="st4" d="M28.1,48.3c-0.5,0-0.9-0.3-1.1-0.8l-5.8-13.8H16v-2.4h6.1c0.5,0,0.9,0.3,1.1,0.8l5,11.7L38,17.5
		c0.2-0.5,0.6-0.8,1.1-0.8s1,0.3,1.1,0.8l4.6,13.7H50v2.4h-6.1c-0.5,0-1-0.3-1.2-0.8L39,21.5l-9.8,25.9C29.1,48,28.7,48.3,28.1,48.3
		z"/>
	<path class="st4" d="M26,24v-1.4h-1.5c-0.1-0.4-0.3-0.9-0.5-1.2l1.1-1.1l-1-1l-1.1,1c-0.4-0.3-0.8-0.4-1.2-0.5v-1.5h-1.4v1.5
		c-0.4,0.1-0.9,0.3-1.2,0.5L18,19.2l-1,1l1.1,1.1c-0.3,0.4-0.4,0.8-0.5,1.2H16V24h1.5c0.1,0.4,0.3,0.9,0.5,1.2l-1,1.1l1,1l1.1-1.1
		c0.4,0.3,0.8,0.4,1.2,0.5v1.5h1.4v-1.5c0.4-0.1,0.9-0.3,1.2-0.5l1.1,1.1l1-1l-1-1.1c0.3-0.4,0.4-0.8,0.5-1.2H26z M21,25.4
		c-1.2,0-2.1-1-2.1-2.1c0-1.2,1-2.1,2.1-2.1c1.2,0,2.1,1,2.1,2.1C23.2,24.4,22.2,25.4,21,25.4z"/>
</g>
<g id="Layer_35" class="st3">
	<path class="st4" d="M43.6,18.2h-4.8v-2.4h-2.4v2.4h-9.7v-2.4h-2.4v2.4h-4.8c-1.3,0-2.4,1.1-2.4,2.4v24.2c0,1.3,1.1,2.4,2.4,2.4
		h24.2c1.3,0,2.4-1.1,2.4-2.4V20.6C46,19.3,44.9,18.2,43.6,18.2z M43.6,44.8H19.4V27.9h24.2V44.8z M43.6,25.5H19.4v-4.8h4.8V23h2.4
		v-2.4h9.7V23h2.4v-2.4h4.8L43.6,25.5L43.6,25.5z"/>
</g>
<g id="Layer_36" class="st3">
	<g class="st5">
		<path class="st7" d="M44.9,44.8H33.3c-1.2,0-2.1-0.9-2.1-2.1v-6.3c0-1.2,0.9-2.1,2.1-2.1h11.6c1.2,0,2.1,0.9,2.1,2.1v6.3
			C47,43.9,46.1,44.8,44.9,44.8z M33.3,36.4v6.3h11.6v-6.3H33.3z"/>
		<path class="st7" d="M29.1,38.5h-9.5c-1.2,0-2.1-0.9-2.1-2.1V22.8c0-1.2,0.9-2.1,2.1-2.1h23.1c1.2,0,2.1,0.9,2.1,2.1v9.5h-2.1
			v-9.5h-23v13.7h9.5v2H29.1z"/>
	</g>
</g>
<g id="Layer_37">
</g>
<g id="Layer_40">
</g>
<g id="Layer_41" class="st3">
	<g class="st5">
		<path class="st7" d="M46.9,29.2c0.6,0,1.1-0.5,1.1-1.1v-5.7c0-1.3-1-2.3-2.3-2.3H18.3c-1.3,0-2.3,1-2.3,2.3v5.7
			c0,0.6,0.5,1.1,1.1,1.1c1.3,0,2.3,1,2.3,2.3c0,1.3-1,2.3-2.3,2.3c-0.6,0-1.1,0.5-1.1,1.1v5.7c0,1.3,1,2.3,2.3,2.3h27.4
			c1.3,0,2.3-1,2.3-2.3v-5.7c0-0.6-0.5-1.1-1.1-1.1c-1.3,0-2.3-1-2.3-2.3C44.6,30.2,45.6,29.2,46.9,29.2z M45.7,35.9v4.7h-8v-3.4
			h-2.3v3.4H18.3v-4.7c2.4-0.6,3.9-3.1,3.3-5.6c-0.4-1.6-1.7-2.8-3.3-3.3v-4.7h17.1v3.4h2.3v-3.4h8V27c-2.4,0.6-3.9,3.1-3.3,5.6
			C42.9,34.3,44.1,35.5,45.7,35.9z"/>
		<rect x="35.4" y="28.1" class="st7" width="2.3" height="6.9"/>
	</g>
</g>
<g id="Layer_42" class="st3">
	<path class="st4" d="M43,21.5v4H23v-4H43 M43,19.5H23c-1.1,0-2,0.9-2,2v4c0,1.1,0.9,2,2,2h20c1.1,0,2-0.9,2-2v-4
		C45,20.4,44.1,19.5,43,19.5z"/>
	<path class="st4" d="M27,31.5v10h-4v-10H27 M27,29.5h-4c-1.1,0-2,0.9-2,2v10c0,1.1,0.9,2,2,2h4c1.1,0,2-0.9,2-2v-10
		C29,30.4,28.1,29.5,27,29.5z"/>
	<path class="st4" d="M43,31.5v10H33v-10H43 M43,29.5H33c-1.1,0-2,0.9-2,2v10c0,1.1,0.9,2,2,2h10c1.1,0,2-0.9,2-2v-10
		C45,30.4,44.1,29.5,43,29.5z"/>
</g>
<path class="st2" d="M48,19.6H21.6c-1.2,0-2.2,1-2.2,2.2v17.6c0,1.2,1,2.2,2.2,2.2H48c1.2,0,2.2-1,2.2-2.2V21.8
	C50.2,20.5,49.2,19.6,48,19.6z M45.6,21.8l-10.8,7.5L24,21.8H45.6z M21.6,39.3V22.8l12.6,8.7c0.4,0.3,0.9,0.3,1.3,0L48,22.8v16.6
	H21.6V39.3z"/>
<g class="st3">
	<path class="st4" d="M30.9,42.7c-3.8,0-7.6-1.9-9.8-5.3h5.6v-2.1h-8.5v8.5h2.1v-3.9c2.7,3.2,6.5,5,10.7,5v-2.2H30.9z"/>
	<path class="st4" d="M46.9,38.4v-2.1h-2.2c-0.1-0.6-0.4-1.3-0.7-1.9l1.6-1.6l-1.5-1.5l-1.6,1.6c-0.5-0.3-1.2-0.6-1.9-0.7V30h-2.1
		v2.2c-0.6,0.1-1.3,0.4-1.9,0.7L35,31.3l-1.5,1.5l1.6,1.6c-0.3,0.5-0.6,1.2-0.7,1.9H32v2.1h2.2c0.1,0.6,0.4,1.3,0.7,1.9L33.4,42
		l1.5,1.5l1.6-1.6c0.5,0.3,1.2,0.6,1.9,0.7v2.2h2.1v-2.2c0.6-0.1,1.3-0.4,1.9-0.7l1.6,1.6l1.5-1.5L44,40.4c0.3-0.5,0.6-1.2,0.7-1.9
		L46.9,38.4L46.9,38.4z M39.5,40.6c-1.8,0-3.2-1.4-3.2-3.2s1.4-3.2,3.2-3.2s3.2,1.4,3.2,3.2S41.3,40.6,39.5,40.6z"/>
	<path class="st4" d="M35.2,24.6h5.6c-3.5-5.4-10.8-6.9-16.2-3.4c-3.3,2.1-5.3,5.9-5.3,9.8h-2.1c0-7.7,6.2-13.9,13.9-13.9
		c4.2,0,8,1.8,10.7,5v-3.9h2.1v8.5h-8.5v-2.1H35.2z"/>
</g>
<g class="st3">
	<rect x="21.3" y="29.5" class="st4" width="12.8" height="2.1"/>
	<rect x="19.1" y="24.1" class="st4" width="10.7" height="2.1"/>
	<path class="st4" d="M48.9,30.1l-3.2-7.5c-0.2-0.4-0.6-0.6-1-0.6h-3.2v-2.1c0-0.6-0.5-1.1-1.1-1.1h-17v2.1h16v13.4
		c-1,0.6-1.7,1.5-2,2.6h-6.7c-0.6-2.3-2.9-3.7-5.2-3.1s-3.7,2.9-3.1,5.2s2.9,3.7,5.2,3.1c1.5-0.4,2.7-1.6,3.1-3.1h6.7
		c0.6,2.3,2.9,3.6,5.2,3.1c1.5-0.4,2.7-1.6,3.1-3.1H48c0.6,0,1.1-0.5,1.1-1.1v-7.5C49,30.4,49,30.3,48.9,30.1z M26.6,40.1
		c-1.2,0-2.1-1-2.1-2.1s1-2.1,2.1-2.1s2.1,1,2.1,2.1C28.7,39.2,27.8,40.1,26.6,40.1z M41.5,24.1H44l2.3,5.3h-4.8V24.1z M41.5,40.1
		c-1.2,0-2.1-1-2.1-2.1s1-2.1,2.1-2.1s2.1,1,2.1,2.1C43.7,39.2,42.7,40.1,41.5,40.1z M46.9,36.9h-1.2c-0.5-1.9-2.2-3.2-4.1-3.2v-2.1
		h5.3V36.9z"/>
</g>
<g>
	<path class="st7" d="M44.8,23.9l-11-6.1c-0.3-0.2-0.7-0.2-1.1,0l-11,6.1c-0.5,0.3-0.7,1-0.4,1.5c0.1,0.2,0.3,0.3,0.4,0.4l10.4,5.7
		v11.8l-3.3-1.8l-1.1,1.9l5,2.7c0.3,0.2,0.7,0.2,1.1,0l11-6.1c0.4-0.2,0.6-0.6,0.6-1V24.8C45.3,24.4,45.1,24.1,44.8,23.9z
		 M33.2,20.1l8.7,4.8l-8.7,4.8l-8.7-4.8L33.2,20.1z M43.1,38.5l-8.8,4.8V31.6l8.8-4.8V38.5z"/>
	<rect x="14.5" y="29.8" class="st7" width="8.8" height="2.2"/>
	<rect x="16.7" y="38.6" class="st7" width="8.8" height="2.2"/>
	<rect x="18.9" y="34.2" class="st7" width="8.8" height="2.2"/>
</g>
</svg>
